<svg width="450" height="320" viewBox="0 0 450 320" fill="none" xmlns="http://www.w3.org/2000/svg">
  <rect width="450" height="320" rx="12" fill="#F8FAFC"/>
  
  <g stroke="#CBD5E1" stroke-width="2.5">
    <line x1="80" y1="80" x2="200" y2="80"/> <line x1="80" y1="80" x2="140" y2="180"/> <line x1="200" y1="80" x2="200" y2="200"/> <line x1="200" y1="80" x2="320" y2="120"/> <line x1="140" y1="180" x2="200" y2="200"/> <line x1="140" y1="180" x2="320" y2="120"/> <line x1="200" y1="200" x2="320" y2="120"/> <line x1="200" y1="200" x2="370" y2="230"/> <line x1="320" y1="120" x2="370" y2="230"/> <line x1="370" y1="230" x2="200" y2="80"/> </g>
  
  <g fill="#475569" font-family="Inter, system-ui, sans-serif" font-size="13" font-weight="600">
    <text x="140" y="72" text-anchor="middle">4</text> <text x="100" y="135" text-anchor="middle">7</text> <text x="190" y="150" text-anchor="middle">2</text> <text x="260" y="95" text-anchor="middle">8</text> <text x="170" y="200" text-anchor="middle">2</text> <text x="220" y="165" text-anchor="middle">5</text> <text x="260" y="170" text-anchor="middle">1</text> <text x="280" y="225" text-anchor="middle">4</text> <text x="355" y="175" text-anchor="middle">11</text> <text x="290" y="150" text-anchor="middle">8</text> </g>

  <g font-family="Inter, system-ui, sans-serif" font-size="14" font-weight="700" text-anchor="middle">
    <circle cx="80" cy="80" r="22" fill="#0F172A"/>
    <text x="80" y="85" fill="#FFFFFF">A</text>
    
    <circle cx="200" cy="80" r="20" fill="#0EA5E9"/>
    <text x="200" y="85" fill="#FFFFFF">B</text>
    
    <circle cx="140" cy="180" r="20" fill="#FFFFFF" stroke="#94A3B8" stroke-width="2"/>
    <text x="140" y="185" fill="#0F172A">C</text>
    
    <circle cx="200" cy="200" r="20" fill="#FFFFFF" stroke="#94A3B8" stroke-width="2"/>
    <text x="200" y="205" fill="#0F172A">D</text>
    
    <circle cx="320" cy="120" r="20" fill="#0EA5E9"/>
    <text x="320" y="125" fill="#FFFFFF">E</text>
    
    <circle cx="370" cy="230" r="20" fill="#0EA5E9"/>
    <text x="370" y="235" fill="#FFFFFF">F</text>
  </g>
</svg>
