<svg width="450" height="320" viewBox="0 0 450 320" fill="none" xmlns="http://www.w3.org/2000/svg">
  <rect width="450" height="320" rx="12" fill="#F8FAFC"/>
  
  <g stroke="#E2E8F0" stroke-width="2">
    <line x1="80" y1="80" x2="140" y2="180"/> <line x1="200" y1="80" x2="200" y2="200"/> <line x1="140" y1="180" x2="200" y2="200"/> <line x1="140" y1="180" x2="320" y2="120"/> <line x1="200" y1="200" x2="320" y2="120"/> <line x1="200" y1="200" x2="370" y2="230"/> </g>
  
  <g stroke="#1E40AF" stroke-width="6" stroke-linecap="round">
    <line x1="80" y1="80" x2="200" y2="80"/> <line x1="200" y1="80" x2="320" y2="120"/> <line x1="320" y1="120" x2="370" y2="230"/> <line x1="370" y1="230" x2="200" y2="80"/> </g>

  <line x1="370" y1="230" x2="80" y2="80" stroke="#1E40AF" stroke-width="6" stroke-dasharray="8 8"/> <g fill="#1D4ED8" font-family="Inter, system-ui, sans-serif" font-size="15" font-weight="800">
    <text x="140" y="68" text-anchor="middle">4</text> <text x="260" y="90" text-anchor="middle">8</text> <text x="360" y="175" text-anchor="middle">11</text> <text x="220" y="150" text-anchor="middle">10*</text> </g>

  <g font-family="Inter, system-ui, sans-serif" font-size="14" font-weight="700" text-anchor="middle">
    <circle cx="80" cy="80" r="24" fill="#0F172A" stroke="#1E40AF" stroke-width="3"/>
    <text x="80" y="85" fill="#FFFFFF">A</text>
    
    <circle cx="200" cy="80" r="20" fill="#0EA5E9"/>
    <text x="200" y="85" fill="#FFFFFF">B</text>
    
    <circle cx="140" cy="180" r="15" fill="#F1F5F9" stroke="#E2E8F0"/>
    <circle cx="200" cy="200" r="15" fill="#F1F5F9" stroke="#E2E8F0"/>
    
    <circle cx="320" cy="120" r="20" fill="#0EA5E9"/>
    <text x="320" y="125" fill="#FFFFFF">E</text>
    
    <circle cx="370" cy="230" r="20" fill="#0EA5E9"/>
    <text x="370" y="235" fill="#FFFFFF">F</text>
  </g>
</svg>
